<?xml version="1.0" encoding="UTF-8" standalone="no"?>
<svg
   version="1.1"
   viewBox="0 0 678.45756 57.422597"
   webcrx=""
   id="svg1"
   width="678.45758"
   height="57.422596"
   xmlns="http://www.w3.org/2000/svg"
   xmlns:svg="http://www.w3.org/2000/svg">
  <defs
     id="defs1" />
  <!-- Generator: Adobe Illustrator 28.6.0, SVG Export Plug-In . SVG Version: 1.2.0 Build 709)  -->
  <g
     id="g1"
     transform="translate(-81.8,-268.5)">
    <g
       id="katman_1">
      <path
         d="m 411.6,312.7 c -2.9,1.6 -5.5,2.4 -9.1,2.4 -3.6,0 -6.5,-0.8 -9.1,-2.3 -2.7,-1.5 -4.8,-3.6 -6.3,-6.3 -1.5,-2.7 -2.3,-5.8 -2.3,-9.2 0,-3.4 0.8,-6.6 2.3,-9.3 1.5,-2.7 3.6,-4.8 6.3,-6.3 2.7,-1.5 5.8,-2.2 9.3,-2.2 5.1,0 9.4,1.8 13.1,5.3 l 6.4,-9.4 c -2.1,-1.8 -4.5,-3.3 -7.1,-4.4 -3.9,-1.6 -8.2,-2.5 -13,-2.5 -4.8,0 -10.8,1.2 -15.4,3.7 -4.6,2.5 -8.1,5.9 -10.7,10.2 -2.6,4.3 -3.9,9.3 -3.9,14.8 0,5.5 1.3,10.4 3.9,14.8 2.6,4.4 6.1,7.8 10.6,10.2 4.5,2.5 9.6,3.7 15.3,3.7 5.7,0 7.9,-0.6 11.8,-1.8 3.9,-1.2 7.3,-3 10.3,-5.2 v -22.6 h -12.2 v 16.3 z m -237,1.4 v 11 h -41 v -55.6 h 40.1 v 11 h -27.6 v 11.4 h 24.7 v 10.7 h -24.7 v 11.5 h 28.4 z m -48.9,-12.9 c -1.8,-2.4 -4.2,-4 -7.3,-5 2.3,-1.2 4.1,-2.9 5.3,-5 1.3,-2.1 1.9,-4.5 1.9,-7.2 0,-4.4 -1.8,-8 -5.3,-10.6 -3.6,-2.6 -8.7,-3.9 -15.3,-3.9 H 81.8 v 55.6 h 24.8 c 7.1,0 12.5,-1.3 16.2,-3.9 3.7,-2.6 5.6,-6.4 5.6,-11.2 0,-4.8 -0.9,-6.3 -2.6,-8.7 z M 94.3,279.8 h 8.5 c 3.1,0 5.5,0.5 7.1,1.5 1.6,1 2.4,2.6 2.4,4.6 0,2 -0.8,3.6 -2.4,4.7 -1.6,1.1 -4,1.6 -7.1,1.6 h -8.5 z m 18.8,33.1 c -1.7,1 -4.2,1.6 -7.5,1.6 H 94.3 v -12.8 h 11.3 c 6.7,0 10,2.1 10,6.4 0,4.3 -0.8,3.8 -2.5,4.8 z M 232,325.1 v -55.6 h -12.5 v 34.4 l -26.3,-34.4 h -12.5 v 55.6 h 12.5 v -34.4 l 26.3,34.4 z m 479.8,-55.6 v 55.6 H 699.3 L 673,290.7 v 34.4 H 660.5 V 269.5 H 673 l 26.3,34.4 v -34.4 z m -344.9,55.6 v -55.6 h -12.5 v 34.4 l -26.3,-34.4 h -12.5 v 55.6 h 12.5 v -34.4 l 26.3,34.4 z m -59,-55.6 h -12.3 v 55.6 h 12.3 z m 230.5,2.4 c 3.6,1.6 6.3,4 8.2,7 1.9,3 2.9,6.6 2.9,10.7 0,4.1 -1,7.6 -2.9,10.7 -1.9,3 -4.7,5.4 -8.2,7 -3.6,1.6 -7.7,2.4 -12.6,2.4 h -8.3 V 325 h -12.6 v -55.6 h 20.9 c 4.8,0 9,0.8 12.6,2.5 z m -13.2,26.8 c 3.8,0 6.7,-0.8 8.6,-2.4 2,-1.6 3,-3.9 3,-6.9 0,-3 -1,-5.4 -3,-7 -2,-1.6 -4.9,-2.4 -8.6,-2.4 h -7.6 v 18.8 h 7.6 z m -69.4,17.5 c 3.6,3.4 7,5.3 9.3,6.4 1.8,0.8 14.2,6.4 25.2,1 1.7,-0.8 4.4,-2.3 6.6,-5.3 3.5,-5 3,-10.9 2.1,-13.8 -0.7,-2.1 -1.8,-3.9 -1.8,-3.9 -0.6,-0.9 -1.2,-1.7 -1.9,-2.3 -1.7,-1.7 -3.5,-2.6 -4.6,-3.1 -4.1,-1.9 -8.1,-2.9 -9.8,-3.3 -0.2,0 -0.3,0 -0.5,-0.1 -2,-0.4 -4.8,-1.1 -7.6,-2.6 -0.6,-0.3 -1.4,-0.9 -2,-1.9 -0.9,-1.5 -0.9,-3.6 0,-5.2 0.8,-1.4 2.1,-1.9 3,-2.3 0.7,-0.3 1.9,-0.7 4.3,-0.6 1.7,0 3.8,0.3 6.5,1.4 2,0.8 4.9,2.1 8,4.4 1,-1.5 1.9,-3 2.9,-4.5 v 0 c 0,0 0,0 0,0 v 0 c 1,-1.6 2,-3.1 2.9,-4.6 -2,-1.4 -5,-3.3 -8.9,-4.7 -1.2,-0.5 -2.6,-0.9 -4.2,-1.3 0,0 -3,-0.7 -5.8,-1 v 0 c -1.7,-0.1 -13.4,-1.1 -19,6.8 -2.8,3.9 -2.8,8.2 -2.8,9.6 v 0 c 0,1.6 0,5.7 2.7,9.2 1.6,2.2 3.6,3.2 5.9,4.5 v 0 c 3.3,1.8 6.6,2.7 8.6,3.2 0.5,0.1 0.9,0.2 1.3,0.3 v 0 c 0,0 0,0 0,0 0.8,0.2 1.5,0.4 2.8,0.7 3.8,1.1 4.7,1.6 5.6,2.3 0.6,0.6 1.9,1.6 2.1,3.4 0.3,2 -0.9,3.6 -1.1,3.8 -0.4,0.6 -1.2,1.3 -2.9,1.9 -4.1,1.3 -9.5,0 -13.1,-2.3 -0.9,-0.6 -2.3,-1.6 -3.5,-2.4 -1.4,-1 -2.4,-2 -3.2,-2.6 -1.2,1.5 -2.5,3 -3.7,4.5 -1.2,1.5 -2.5,3.1 -3.7,4.6 z m 269.6,6.4 c -2.3,-1.1 -5.8,-3 -9.3,-6.4 2.5,-3 5,-6.1 7.4,-9.1 0.8,0.7 1.8,1.6 3.2,2.6 1.1,0.8 2.5,1.8 3.5,2.4 3.6,2.3 9,3.7 13.1,2.3 1.7,-0.5 2.4,-1.3 2.9,-1.9 0.2,-0.2 1.4,-1.8 1.1,-3.8 -0.3,-1.8 -1.5,-2.8 -2.1,-3.4 -0.8,-0.7 -1.8,-1.2 -5.6,-2.3 -1.3,-0.4 -2.1,-0.6 -2.8,-0.7 -0.4,-0.1 -0.8,-0.2 -1.3,-0.3 v 0 c -2,-0.5 -5.4,-1.4 -8.6,-3.2 v 0 c -2.3,-1.3 -4.2,-2.3 -5.9,-4.5 -2.7,-3.6 -2.7,-7.6 -2.7,-9.2 0,-1.6 0,-5.7 2.8,-9.6 5.6,-7.9 17.3,-7 19,-6.8 2.8,0.2 5.8,1 5.8,1 1.6,0.4 3,0.9 4.2,1.3 3.9,1.5 6.9,3.3 8.9,4.7 -1,1.5 -1.9,3 -2.9,4.5 v 0 c 0,0 0,0 0,0 v 0 c -1,1.6 -2,3.1 -2.9,4.6 -3.1,-2.3 -6,-3.6 -8,-4.4 -2.7,-1 -4.8,-1.3 -6.5,-1.4 -2.4,0 -3.6,0.3 -4.3,0.6 -0.9,0.4 -2.1,0.9 -3,2.3 -1,1.6 -1,3.7 0,5.2 0.6,1 1.4,1.6 2,1.9 2.8,1.6 5.6,2.2 7.6,2.6 0.2,0 0.3,0 0.5,0.1 1.7,0.4 5.7,1.4 9.8,3.3 1.1,0.5 2.8,1.4 4.6,3.1 0.7,0.6 1.3,1.4 1.9,2.3 0,0 1.2,1.8 1.8,3.9 0.9,2.9 1.4,8.8 -2.1,13.8 -2.1,3.1 -4.9,4.5 -6.6,5.3 -11,5.4 -23.4,-0.1 -25.2,-1 z M 275.3,272.9 c 4.5,2.3 8.1,5.5 10.6,9.7 2.5,4.2 3.8,9.1 3.8,14.6 0,5.5 -1.3,10.4 -3.8,14.6 -2.5,4.2 -6,7.4 -10.6,9.7 -4.5,2.3 -9.8,3.5 -15.7,3.5 h -20.4 v -55.6 h 20.4 c 5.9,0 11.1,1.2 15.7,3.5 z M 259,314.1 c 5.4,0 9.8,-1.5 13,-4.5 3.2,-3 4.9,-7.1 4.9,-12.3 0,-5.2 -1.6,-9.3 -4.9,-12.3 -3.2,-3 -7.6,-4.5 -13,-4.5 h -7.5 v 33.6 z m 369.3,-31 c -6,0 -11.2,3.8 -13.2,9.1 l -14.7,-14.7 c -10.9,-10.9 -28.7,-10.9 -39.6,0 -10.9,10.9 -10.9,28.7 0,39.6 5.5,5.5 12.6,8.2 19.8,8.2 7.2,0 14.3,-2.7 19.8,-8.2 l 0.4,-0.4 -6,-6 -0.4,0.4 c -7.6,7.6 -20,7.6 -27.6,0 -7.6,-7.6 -7.6,-20 0,-27.6 7.6,-7.6 20,-7.6 27.6,0 l 23.7,23.7 0.4,0.4 c 1.2,1.1 2.6,2.1 4.1,2.8 1.8,0.8 3.7,1.2 5.8,1.2 7.8,0 14.2,-6.4 14.2,-14.2 0,-7.8 -6.4,-14.2 -14.2,-14.2 z m -19.8,-5.6 c 10.9,-10.9 28.7,-10.9 39.6,0 5.3,5.3 8.2,12.3 8.2,19.8 0,7.5 -2.9,14.5 -8.2,19.8 -5.5,5.5 -12.6,8.2 -19.8,8.2 -7.2,0 -14.3,-2.7 -19.8,-8.2 l -14.7,-14.7 c -2.1,5.3 -7.2,9.1 -13.2,9.1 -6,0 -14.2,-6.4 -14.2,-14.2 0,-7.8 6.4,-14.2 14.2,-14.2 7.8,0 5.1,0.7 7.2,1.9 1,0.6 1.9,1.3 2.7,2 l 0.4,0.4 23.7,23.7 c 7.6,7.6 20,7.6 27.6,0 3.7,-3.7 5.7,-8.6 5.7,-13.8 0,-5.2 -2,-10.1 -5.7,-13.8 -7.6,-7.6 -20,-7.6 -27.6,0 l -0.4,0.4 -6,-6 0.4,-0.4 z"
         id="path1" />
    </g>
  </g>
</svg>
