<?xml version="1.0" encoding="UTF-8" standalone="no"?>
<!DOCTYPE svg PUBLIC "-//W3C//DTD SVG 1.1//EN" "http://www.w3.org/Graphics/SVG/1.1/DTD/svg11.dtd">
<svg xmlns="http://www.w3.org/2000/svg" version="1.1" viewBox="0.00 0.00 692.00 100.00">
<rect fill="#173a86" x="-6.00" y="-8.00" transform="translate(540.00,9.00) rotate(-0.1)" width="12.00" height="16.00" rx="0.85"/>
<path fill="#173a86" d="
  M 486.24 35.00
  L 476.50 35.00
  Q 476.00 35.00 476.00 34.50
  L 476.00 26.62
  Q 476.00 26.00 476.62 26.00
  L 486.00 26.00
  A 1.00 1.00 0.0 0 0 487.00 25.00
  L 487.00 12.99
  A 1.98 1.97 79.0 0 1 488.23 11.16
  L 498.31 7.04
  A 0.50 0.50 0.0 0 1 499.00 7.50
  L 499.00 25.50
  Q 499.00 26.00 499.50 26.00
  L 521.27 26.00
  A 0.71 0.71 0.0 0 1 521.98 26.70
  L 522.01 34.34
  A 0.66 0.66 0.0 0 1 521.35 35.00
  L 499.52 35.00
  A 0.50 0.50 0.0 0 0 499.02 35.49
  Q 498.93 55.57 499.07 75.48
  C 499.20 92.30 509.32 87.36 520.53 87.28
  Q 521.07 87.28 521.06 87.82
  L 520.86 95.37
  A 1.70 1.70 0.0 0 1 519.13 97.02
  C 512.44 96.92 502.47 98.07 497.23 96.14
  C 490.78 93.76 487.72 87.47 487.51 80.68
  Q 486.81 58.29 487.02 35.78
  A 0.78 0.78 0.0 0 0 486.24 35.00
  Z"
/>
<path fill="#173a86" d="
  M 455.90 51.97
  C 454.89 45.30 455.13 38.70 448.39 35.16
  C 438.90 30.19 428.04 34.97 424.13 45.06
  A 1.61 1.60 18.1 0 1 422.22 46.03
  L 413.32 43.61
  Q 412.74 43.45 412.92 42.89
  C 421.20 16.17 466.79 18.12 466.94 46.32
  Q 467.07 71.28 466.98 96.00
  A 1.01 1.00 -89.7 0 1 465.98 97.00
  L 456.78 97.01
  Q 456.00 97.01 456.00 96.22
  L 456.00 87.00
  A 0.43 0.42 -27.3 0 0 455.23 86.76
  Q 443.84 102.54 424.51 98.25
  C 404.16 93.73 400.60 67.39 420.39 58.37
  C 430.35 53.83 444.16 52.63 454.89 53.09
  A 0.98 0.98 0.0 0 0 455.90 51.97
  Z
  M 422.44 69.94
  C 417.15 76.49 420.89 87.84 429.49 89.34
  Q 446.29 92.25 453.52 78.88
  C 456.20 73.91 456.25 67.74 455.95 62.10
  Q 455.93 61.64 455.47 61.64
  C 445.54 61.60 429.10 61.68 422.44 69.94
  Z"
/>
<path fill="#173a86" d="
  M 679.72 86.94
  Q 667.57 103.57 646.64 98.08
  C 638.56 95.96 633.31 90.12 631.68 81.95
  C 628.48 65.86 642.46 57.16 656.02 55.14
  Q 667.57 53.42 678.99 53.12
  A 0.94 0.94 0.0 0 0 679.90 52.08
  C 679.30 47.02 679.01 40.57 674.71 36.93
  C 665.70 29.30 650.68 35.26 647.47 46.03
  A 1.21 1.21 0.0 0 1 645.92 46.83
  L 637.62 44.04
  A 1.14 1.14 0.0 0 1 636.89 42.62
  C 641.48 27.77 658.39 21.49 672.55 25.08
  C 686.23 28.54 691.19 38.68 691.08 52.06
  Q 690.91 73.40 691.03 95.72
  A 1.27 1.27 0.0 0 1 689.76 97.00
  L 680.78 97.01
  Q 680.00 97.01 680.00 96.22
  L 680.00 87.03
  Q 680.00 86.55 679.72 86.94
  Z
  M 644.14 74.25
  C 642.18 80.96 645.94 86.55 652.31 88.84
  Q 660.29 91.70 668.40 87.41
  C 678.92 81.84 679.65 72.95 680.15 62.04
  Q 680.17 61.57 679.70 61.57
  C 669.27 61.58 647.93 61.25 644.14 74.25
  Z"
/>
<path fill="#173a86" d="
  M 280.67 100.00
  L 276.71 100.00
  Q 258.99 98.61 250.68 85.57
  C 240.97 70.32 242.21 42.53 257.51 30.92
  C 266.26 24.28 278.56 22.79 289.03 25.75
  C 301.68 29.32 309.00 38.56 311.53 51.24
  C 316.16 74.38 307.15 97.96 280.67 100.00
  Z
  M 261.45 42.25
  C 255.44 51.40 255.21 66.70 259.26 76.96
  C 264.96 91.38 284.25 94.23 294.13 82.29
  C 303.52 70.94 302.37 43.27 288.01 36.00
  C 278.91 31.41 267.19 33.52 261.45 42.25
  Z"
/>
<path fill="#173a86" d="
  M 566.99 84.96
  C 548.52 63.18 561.51 29.22 590.02 25.22
  Q 612.28 22.11 625.70 39.34
  Q 626.08 39.83 625.59 40.20
  L 611.54 51.03
  A 0.80 0.79 50.7 0 1 610.46 50.92
  C 601.64 40.63 585.58 40.64 580.21 54.49
  C 574.36 69.56 586.73 84.50 602.88 78.28
  C 606.05 77.06 608.03 74.66 610.29 72.23
  A 1.35 1.35 0.0 0 1 612.06 72.04
  L 625.03 81.18
  Q 626.60 82.29 625.39 83.79
  C 610.47 102.33 582.70 103.50 566.99 84.96
  Z"
/>
<path fill="#173a86" d="
  M 122.18 79.93
  C 110.87 108.19 67.06 104.80 59.78 74.99
  C 53.72 50.14 63.83 24.33 93.50 25.33
  C 106.28 25.76 115.72 30.73 121.34 42.41
  C 126.78 53.70 126.75 68.49 122.18 79.93
  Z
  M 110.90 48.08
  C 106.95 36.29 93.47 30.80 82.65 36.54
  C 63.96 46.46 65.83 89.28 90.87 89.69
  C 113.48 90.07 116.20 63.91 110.90 48.08
  Z"
/>
<path fill="#173a86" d="
  M 55.00 79.79
  L 55.00 96.21
  A 0.79 0.79 0.0 0 1 54.21 97.00
  L 1.79 97.00
  A 0.79 0.79 0.0 0 1 1.00 96.21
  L 1.00 26.79
  A 0.79 0.79 0.0 0 1 1.79 26.00
  L 20.21 26.00
  A 0.79 0.79 0.0 0 1 21.00 26.79
  L 21.00 78.21
  A 0.79 0.79 0.0 0 0 21.79 79.00
  L 54.21 79.00
  A 0.79 0.79 0.0 0 1 55.00 79.79
  Z"
/>
<path fill="#173a86" d="
  M 128.00 43.17
  L 128.00 26.83
  A 0.83 0.83 0.0 0 1 128.83 26.00
  L 189.17 26.00
  A 0.83 0.83 0.0 0 1 190.00 26.83
  L 190.00 43.17
  A 0.83 0.83 0.0 0 1 189.17 44.00
  L 169.83 44.00
  A 0.83 0.83 0.0 0 0 169.00 44.83
  L 169.00 96.17
  A 0.83 0.83 0.0 0 1 168.17 97.00
  L 149.83 97.00
  A 0.83 0.83 0.0 0 1 149.00 96.17
  L 149.00 44.83
  A 0.83 0.83 0.0 0 0 148.17 44.00
  L 128.83 44.00
  A 0.83 0.83 0.0 0 1 128.00 43.17
  Z"
/>
<path fill="#173a86" d="
  M 195.17 33.81
  L 195.81 26.99
  A 1.09 1.09 0.0 0 1 196.89 26.00
  L 250.03 26.00
  A 1.09 1.09 0.0 0 1 251.10 27.27
  L 249.94 34.09
  A 1.09 1.09 0.0 0 1 248.86 35.00
  L 229.28 35.00
  A 1.09 1.09 0.0 0 0 228.22 35.86
  L 215.31 96.14
  A 1.09 1.09 0.0 0 1 214.25 97.00
  L 204.60 97.00
  A 1.09 1.09 0.0 0 1 203.53 95.69
  L 215.90 36.31
  A 1.09 1.09 0.0 0 0 214.83 35.00
  L 196.26 35.00
  A 1.09 1.09 0.0 0 1 195.17 33.81
  Z"
/>
<path fill="#173a86" d="
  M 378.00 59.22
  A 0.28 0.28 0.0 0 0 377.49 59.07
  L 361.64 83.65
  A 1.23 1.23 0.0 0 1 359.57 83.65
  L 343.61 59.09
  A 0.33 0.33 0.0 0 0 343.00 59.27
  L 343.00 95.50
  A 1.51 1.50 -90.0 0 1 341.50 97.01
  L 324.67 96.99
  A 1.42 1.42 0.0 0 1 323.26 95.54
  C 323.65 72.81 322.92 49.97 323.17 27.34
  A 1.15 1.14 -90.0 0 1 324.30 26.20
  L 343.79 25.93
  Q 344.40 25.92 344.71 26.43
  L 360.24 51.93
  A 0.64 0.64 0.0 0 0 361.34 51.93
  L 377.08 26.45
  A 0.95 0.95 0.0 0 1 377.89 26.00
  L 397.25 26.00
  A 0.75 0.75 0.0 0 1 398.00 26.75
  L 398.00 96.00
  A 1.00 1.00 0.0 0 1 397.00 97.00
  L 378.75 97.00
  A 0.75 0.75 0.0 0 1 378.00 96.25
  L 378.00 59.22
  Z"
/>
<rect fill="#173a86" x="534.00" y="26.00" width="12.00" height="71.00" rx="0.85"/>
</svg>
